<svg width="10" height="14" viewBox="0 0 10 14" version="1.1" xmlns="http://www.w3.org/2000/svg" xmlns:xlink="http://www.w3.org/1999/xlink">
<title>Vector</title>
<desc>Created using Figma</desc>
<g id="Canvas" transform="translate(-3266 2287)">
<g id="Vector">
<use xlink:href="#path0_fill" transform="translate(3266 -2287)" fill="#1298FF"/>
</g>
</g>
<defs>
<path id="path0_fill" d="M 9.03174 7.29034C 8.59137 6.73781 8.09368 6.46169 7.53831 6.46169L 7.53831 2.15391C 7.82993 2.15391 8.0826 2.04735 8.29545 1.83423C 8.50874 1.62109 8.61541 1.36857 8.61541 1.07698C 8.61541 0.785245 8.50874 0.532877 8.29545 0.319732C 8.0826 0.106587 7.82996 0 7.53831 0L 2.15388 0C 1.86214 0 1.60977 0.106587 1.39663 0.319732C 1.18345 0.532877 1.07689 0.785215 1.07689 1.07698C 1.07689 1.36869 1.18345 1.62109 1.39663 1.83423C 1.60977 2.04735 1.86223 2.15391 2.15388 2.15391L 2.15388 6.46157C 1.59857 6.46157 1.10085 6.73781 0.660505 7.29031C 0.220218 7.84284 0 8.46386 0 9.15395C 0 9.29976 0.0533084 9.426 0.159896 9.53253C 0.266542 9.639 0.392726 9.69228 0.538565 9.69228L 3.93757 9.69228L 4.57698 13.7729C 4.60497 13.9244 4.69473 14 4.84617 14L 4.85474 14C 4.92176 14 4.97954 13.9762 5.02716 13.9286C 5.07476 13.8809 5.10419 13.8233 5.11539 13.7561L 5.54439 9.69231L 9.15374 9.69231C 9.29955 9.69231 9.42591 9.63903 9.53232 9.53256C 9.63903 9.42606 9.6924 9.29982 9.6924 9.15398C 9.69248 8.46398 9.47206 7.84287 9.03174 7.29034Z"/>
</defs>
</svg>
