<?xml version="1.0" encoding="UTF-8" standalone="no"?>
<svg width="21px" height="22px" viewBox="0 0 21 22" version="1.1" xmlns="http://www.w3.org/2000/svg" xmlns:xlink="http://www.w3.org/1999/xlink">
    <!-- Generator: Sketch 49.1 (51147) - http://www.bohemiancoding.com/sketch -->
    <title>ic_bell_r</title>
    <desc>Created with Sketch.</desc>
    <defs></defs>
    <g id="Elements" stroke="none" stroke-width="1" fill="none" fill-rule="evenodd">
        <g id="Artboard-2" transform="translate(-460.000000, -118.000000)" fill="#FC544E">
            <g id="ic_bell_r" transform="translate(460.000000, 118.000000)">
                <path d="M6.83252301,18.1789553 L0.861231995,18.1789553 C0.385536852,18.1789553 0,17.790206 0,17.3105473 C0,16.8308886 0.385536852,16.4420895 0.861231995,16.4420895 L1.60764956,16.4420895 L1.60764956,8.39477625 C1.60764956,3.76578016 5.34231193,0 9.93300771,0 C14.523753,0 18.2583658,3.76578016 18.2583658,8.39477625 L18.2583658,16.4420895 L19.2344618,16.4420895 C19.7101569,16.4420895 20.0956938,16.8308886 20.0956938,17.3105473 C20.0956938,17.790206 19.7101569,18.1789553 19.2344618,18.1789553 L13.1483068,18.1789553 L13.1483068,18.8157711 C13.1483068,20.5714577 11.7315691,22 9.99043968,22 C8.24926078,22 6.83252301,20.5714577 6.83252301,18.8157711 L6.83252301,18.1789553 Z M8.55503651,18.1789553 L8.55503651,18.8157711 C8.55503651,19.6138876 9.19896772,20.2631842 9.99043968,20.2631842 C10.7819116,20.2631842 11.4258428,19.6138876 11.4258428,18.8157711 L11.4258428,18.1789553 L8.55503651,18.1789553 Z M16.5359019,16.4420895 L16.5359019,8.39477625 C16.5359019,4.72364981 13.5740461,1.73686575 9.93300771,1.73686575 C6.29196935,1.73686575 3.33016306,4.72364981 3.33016306,8.39477625 L3.33016306,16.4420895 L16.5359019,16.4420895 Z" id="Combined-Shape"></path>
            </g>
        </g>
    </g>
</svg>