<?xml version="1.0" encoding="UTF-8"?>
<svg width="16px" height="16px" viewBox="0 0 16 16" version="1.1" xmlns="http://www.w3.org/2000/svg" xmlns:xlink="http://www.w3.org/1999/xlink">
    <!-- Generator: Sketch 49.1 (51147) - http://www.bohemiancoding.com/sketch -->
    <title>iс_comment_w</title>
    <desc>Created with Sketch.</desc>
    <defs></defs>
    <g id="Elements" stroke="none" stroke-width="1" fill="none" fill-rule="evenodd">
        <g id="Artboard-2" transform="translate(-178.000000, -101.000000)" fill="#FFFFFF" fill-rule="nonzero">
            <g id="iс_comment_w" transform="translate(178.000000, 101.000000)">
                <path d="M11.5044728,15.623275 C11.3622979,15.623275 11.2214846,15.5778367 11.107461,15.4843217 L6.9511773,12.0801827 L1.49722931,12.0801827 C0.676264775,12.0801827 0,11.3926626 0,10.5545893 L0,1.50928194 C0,0.674949663 0.676264775,0.00916869368 1.49722931,0.00916869368 L14.4980426,0.00916869368 C15.3277636,0.00916869368 16,0.674959086 16,1.50928194 L16,10.5546176 C16,11.3926908 15.3277636,12.0801827 14.4980426,12.0801827 L12.1229314,12.0801827 L12.1229314,15.0006896 C12.1229314,15.2415539 11.9866194,15.4607827 11.7680567,15.5636643 C11.6830165,15.6036655 11.5950165,15.623275 11.5044728,15.623275 Z M1.49722931,1.25302025 C1.36528605,1.25302025 1.25768322,1.36157457 1.25768322,1.50928194 L1.25768322,10.5545893 C1.25768322,10.7035217 1.36751773,10.8363217 1.49722931,10.8363217 L7.17513002,10.8363217 C7.31991489,10.8363217 7.45777778,10.8829661 7.56959811,10.9745965 L10.8747045,13.6823483 L10.8747045,11.4519057 C10.8747045,11.1080561 11.1593002,10.8363311 11.5043593,10.8363311 L14.4980426,10.8363311 C14.6315934,10.8363311 14.751773,10.6983861 14.751773,10.5546176 L14.751773,1.50928194 C14.751773,1.3665594 14.6339764,1.25302025 14.4980426,1.25302025 L1.49722931,1.25302025 Z" id="Shape"></path>
                <path d="M12,4 L4,4 C3.6,4 3.33333333,3.73333333 3.33333333,3.33333333 C3.33333333,2.93333333 3.6,2.66666667 4,2.66666667 L12,2.66666667 C12.4,2.66666667 12.6666667,2.93333333 12.6666667,3.33333333 C12.6666667,3.73333333 12.4,4 12,4 Z M8.66666667,6.66666667 L4,6.66666667 C3.6,6.66666667 3.33333333,6.4 3.33333333,6 C3.33333333,5.6 3.6,5.33333333 4,5.33333333 L8.66666667,5.33333333 C9.06666667,5.33333333 9.33333333,5.6 9.33333333,6 C9.33333333,6.4 9.06666667,6.66666667 8.66666667,6.66666667 Z M10.6666667,9.33333333 L4,9.33333333 C3.6,9.33333333 3.33333333,9.06666667 3.33333333,8.66666667 C3.33333333,8.26666667 3.6,8 4,8 L10.6666667,8 C11.0666667,8 11.3333333,8.26666667 11.3333333,8.66666667 C11.3333333,9.06666667 11.0666667,9.33333333 10.6666667,9.33333333 Z" id="Shape"></path>
            </g>
        </g>
    </g>
</svg>