<?xml version="1.0" encoding="UTF-8"?>
<svg width="20px" height="20px" viewBox="0 0 20 20" version="1.1" xmlns="http://www.w3.org/2000/svg" xmlns:xlink="http://www.w3.org/1999/xlink">
    <!-- Generator: Sketch 49.1 (51147) - http://www.bohemiancoding.com/sketch -->
    <title>iс_comment_pressed</title>
    <desc>Created with Sketch.</desc>
    <defs></defs>
    <g id="Elements" stroke="none" stroke-width="1" fill="none" fill-rule="evenodd">
        <g id="Artboard-2" transform="translate(-47.000000, -97.000000)" fill="#4A51B6" fill-rule="nonzero">
            <g id="iс_comment_pressed" transform="translate(47.000000, 97.000000)">
                <path d="M14.380591,19.5290937 C14.2028723,19.5290937 14.0268558,19.4722959 13.8843262,19.3554021 L8.68897163,15.1002283 L1.87153664,15.1002283 C0.845330969,15.1002283 0,14.2408282 0,13.1932366 L0,1.88660243 C0,0.843687079 0.845330969,0.0114608671 1.87153664,0.0114608671 L18.1225532,0.0114608671 C19.1597045,0.0114608671 20,0.843698858 20,1.88660243 L20,13.193272 C20,14.2408635 19.1597045,15.1002283 18.1225532,15.1002283 L15.1536643,15.1002283 L15.1536643,18.750862 C15.1536643,19.0519424 14.9832742,19.3259784 14.7100709,19.4545804 C14.6037707,19.5045818 14.4937707,19.5290937 14.380591,19.5290937 Z M1.87153664,1.56627531 C1.70660757,1.56627531 1.57210402,1.70196821 1.57210402,1.88660243 L1.57210402,13.1932366 C1.57210402,13.3794021 1.70939716,13.5454021 1.87153664,13.5454021 L8.96891253,13.5454021 C9.14989362,13.5454021 9.32222222,13.6037077 9.46199764,13.7182457 L13.5933806,17.1029354 L13.5933806,14.3148821 C13.5933806,13.8850702 13.9491253,13.5454139 14.3804492,13.5454139 L18.1225532,13.5454139 C18.2894917,13.5454139 18.4397163,13.3729826 18.4397163,13.193272 L18.4397163,1.88660243 C18.4397163,1.70819925 18.2924704,1.56627531 18.1225532,1.56627531 L1.87153664,1.56627531 Z" id="Shape"></path>
                <path d="M15,5 L5,5 C4.5,5 4.16666667,4.66666667 4.16666667,4.16666667 C4.16666667,3.66666667 4.5,3.33333333 5,3.33333333 L15,3.33333333 C15.5,3.33333333 15.8333333,3.66666667 15.8333333,4.16666667 C15.8333333,4.66666667 15.5,5 15,5 Z M10.8333333,8.33333333 L5,8.33333333 C4.5,8.33333333 4.16666667,8 4.16666667,7.5 C4.16666667,7 4.5,6.66666667 5,6.66666667 L10.8333333,6.66666667 C11.3333333,6.66666667 11.6666667,7 11.6666667,7.5 C11.6666667,8 11.3333333,8.33333333 10.8333333,8.33333333 Z M13.3333333,11.6666667 L5,11.6666667 C4.5,11.6666667 4.16666667,11.3333333 4.16666667,10.8333333 C4.16666667,10.3333333 4.5,10 5,10 L13.3333333,10 C13.8333333,10 14.1666667,10.3333333 14.1666667,10.8333333 C14.1666667,11.3333333 13.8333333,11.6666667 13.3333333,11.6666667 Z" id="Shape"></path>
            </g>
        </g>
    </g>
</svg>