<?xml version="1.0" encoding="UTF-8"?>
<svg width="20px" height="20px" viewBox="0 0 20 20" version="1.1" xmlns="http://www.w3.org/2000/svg" xmlns:xlink="http://www.w3.org/1999/xlink">
    <!-- Generator: Sketch 49.1 (51147) - http://www.bohemiancoding.com/sketch -->
    <title>ic_dizlike_pressed</title>
    <desc>Created with Sketch.</desc>
    <defs></defs>
    <g id="Elements" stroke="none" stroke-width="1" fill="none" fill-rule="evenodd">
        <g id="Artboard-2" transform="translate(-47.000000, -222.000000)" fill="#3F46AD">
            <path d="M65.4375,239.65625 C65.4375,240.087031 65.0870312,240.4375 64.65625,240.4375 L63.484375,240.4375 C63.0535938,240.4375 62.703125,240.087031 62.703125,239.65625 L62.703125,231.6875 C62.703125,231.256719 63.0535938,230.90625 63.484375,230.90625 L64.65625,230.90625 C65.0870312,230.90625 65.4375,231.256719 65.4375,231.6875 L65.4375,239.65625 Z M64.65625,229.34375 L63.484375,229.34375 C63.2299609,229.34375 62.9849219,229.384492 62.7553516,229.459805 L58.8983203,223.453828 L58.3948828,222.746641 L58.3521875,222.703125 C57.9077734,222.249687 57.3133594,222 56.6784766,222 C55.3861328,222 54.3347266,223.051406 54.3347266,224.34375 C54.3347266,224.60418 54.3773828,224.860391 54.4614453,225.105273 L54.4774219,225.151836 L54.4991797,225.196055 C54.6219141,225.445859 54.7530859,225.707031 54.8919531,225.983477 C55.2420703,226.680547 55.8201172,227.831367 55.9067187,228.177305 C55.8503516,228.586719 55.3029687,228.835938 54.9130469,228.835938 L49.7734375,228.835938 C48.5457031,228.835938 47.546875,229.834766 47.546875,231.0625 C47.546875,231.46668 47.6574219,231.857188 47.8586719,232.196133 C47.3292578,232.608164 47,233.248984 47,233.953125 C47,234.506094 47.2020312,235.038789 47.5688672,235.453047 C47.6653906,235.56207 47.7705859,235.659805 47.8828516,235.745508 C47.6933594,236.075781 47.5885156,236.453477 47.5885156,236.84375 C47.5885156,237.690508 48.0672266,238.428398 48.7700391,238.804844 C48.6355469,239.08625 48.5625,239.395039 48.5625,239.71207 C48.5625,241.037773 49.5024219,242 50.7974219,242 L58.4453125,242 C58.8767969,242 59.2265625,241.650234 59.2265625,241.21875 C59.2265625,240.787266 58.8767969,240.4375 58.4453125,240.4375 L50.7974219,240.4375 C50.1905469,240.4375 50.125,239.930195 50.125,239.71207 C50.125,239.389727 50.3972656,239.214453 50.4806641,239.168438 C50.9189453,238.92668 50.984375,238.579336 50.984375,238.393828 C50.984375,237.896992 50.5554297,237.507812 50.0078125,237.507812 L49.8316016,237.507812 C49.4563281,237.507812 49.1510156,237.209922 49.1510156,236.84375 C49.1510156,236.610703 49.2808594,236.391133 49.4898437,236.270781 C49.5030859,236.263164 49.5153906,236.256602 49.5265625,236.250586 C49.8718359,236.064102 50.046875,235.796133 50.046875,235.454102 C50.046875,235.159297 49.8500781,234.649687 49.1125,234.609883 C48.814375,234.59375 48.5625,234.293008 48.5625,233.953125 C48.5625,233.653437 48.7742969,233.382461 49.0660938,233.308867 C49.5358984,233.190352 49.8515625,232.821328 49.8515625,232.390625 C49.8515625,232.177383 49.7729297,231.868672 49.3984375,231.608828 C49.2174609,231.483242 49.109375,231.279023 49.109375,231.0625 C49.109375,230.696328 49.4072656,230.398438 49.7734375,230.398438 L54.9130469,230.398438 C56.1033203,230.398438 57.4202734,229.553008 57.4723828,228.187227 L57.4729687,228.157422 C57.4729687,227.687695 57.1301172,226.95832 56.2882031,225.282187 C56.1605859,225.028125 56.0395703,224.787187 55.9270312,224.558789 C55.9072266,224.489375 55.8972266,224.417227 55.8972266,224.34375 C55.8972266,223.912969 56.2476953,223.5625 56.6784766,223.5625 C56.8730859,223.5625 57.0563281,223.632891 57.1997656,223.761758 L57.5939453,224.314219 L61.5144141,230.418945 C61.2779687,230.784805 61.140625,231.22043 61.140625,231.6875 L61.140625,239.65625 C61.140625,240.948594 62.1920312,242 63.484375,242 L64.65625,242 C65.9485938,242 67,240.948594 67,239.65625 L67,231.6875 C67,230.395156 65.9485938,229.34375 64.65625,229.34375 Z" id="ic_dizlike_pressed" transform="translate(57.000000, 232.000000) scale(1, -1) translate(-57.000000, -232.000000) "></path>
        </g>
    </g>
</svg>