<?xml version="1.0" encoding="UTF-8"?>
<svg width="26px" height="20px" viewBox="0 0 26 20" version="1.1" xmlns="http://www.w3.org/2000/svg" xmlns:xlink="http://www.w3.org/1999/xlink">
    <!-- Generator: Sketch 49.1 (51147) - http://www.bohemiancoding.com/sketch -->
    <title>ic_thank_pressed</title>
    <desc>Created with Sketch.</desc>
    <defs></defs>
    <g id="Elements" stroke="none" stroke-width="1" fill="none" fill-rule="evenodd">
        <g id="Artboard-2" transform="translate(-44.000000, -37.000000)" fill="#3F46AD">
            <g id="ic_thank_pressed" transform="translate(44.000000, 37.000000)">
                <path d="M10.1896364,15.3650916 C10.6647273,15.3650916 11.1327273,15.3164899 11.6078182,15.2748312 L11.6078182,17.8646095 C11.1610909,17.9132112 10.6930909,17.9409836 10.1896364,17.9548698 L10.1896364,15.3650916 Z M14.4441818,14.7888139 L14.4441818,17.3369335 C13.9776886,17.4721504 13.5043705,17.5834137 13.026,17.6702025 L13.026,15.0873674 C13.5223636,15.0040501 13.9903636,14.9068467 14.4441818,14.7888139 Z M1.44654545,11.2200579 C1.44654545,10.5257473 2.43218182,9.775892 3.99927273,9.2343298 C5.05581818,11.3172613 9.25363636,12.4003857 13.2174545,12.4003857 C14.5358318,12.4001254 12.7328794,13.1738387 14.0274135,12.9293546 C13.0134135,13.8875031 13.4089091,13.9903568 9.50181818,13.9903568 C4.524,13.9972999 1.44654545,12.3656702 1.44654545,11.2200579 Z M8.814,17.9618129 C8.32472727,17.9618129 7.85672727,17.9132112 7.39581818,17.8715526 L7.39581818,15.2678881 C7.86381818,15.3164899 8.33181818,15.3442623 8.814,15.3581485 L8.814,17.9618129 Z M5.97763636,17.6702025 C5.49926591,17.5834137 5.02594773,17.4721504 4.55945455,17.3369335 L4.55945455,14.7888139 C5.01327273,14.9068467 5.48127273,15.0040501 5.97763636,15.0873674 L5.97763636,17.6702025 Z M3.14127273,16.8162006 C2.03509091,16.2954677 1.41818182,15.6844744 1.41818182,15.1637416 L1.41818182,13.4626808 C1.95053182,13.8252845 2.52693409,14.1214947 3.13418182,14.3444552 L3.14127273,16.8162006 Z M5.12672727,6.45708775 C5.65907727,6.81969142 6.23547955,7.11590164 6.84272727,7.3388621 L6.84272727,9.81060752 C5.73654545,9.28987464 5.12672727,8.68582449 5.12672727,8.16509161 L5.12672727,6.45708775 Z M9.66490909,8.08177435 L9.66490909,10.6646095 C9.18662727,10.5777338 8.71322045,10.4664706 8.24672727,10.3313404 L8.24672727,7.79016393 C8.72181818,7.90819672 9.21818182,8.00540019 9.672,8.08871745 L9.66490909,8.08177435 Z M12.5012727,8.35949855 L12.5012727,10.9492768 C12.012,10.9492768 11.544,10.900675 11.0830909,10.8590164 L11.0830909,8.26229508 C11.5557886,8.31324012 12.028575,8.34795564 12.5012727,8.36644166 L12.5012727,8.35949855 Z M15.3376364,8.26923819 C14.7278182,10.0466731 14.2550909,10.9400193 13.9194545,10.9492768 L13.9194545,8.36644166 C14.3874545,8.35255545 14.8909091,8.31783992 15.3305455,8.26229508 L15.3376364,8.26923819 Z M13.2103636,1.38167792 C18.2094545,1.38167792 21.2869091,3.01330762 21.2869091,4.15891996 C21.2869091,5.3045323 18.2165455,6.93616201 13.2103636,6.93616201 C8.20418182,6.93616201 5.13381818,5.3045323 5.13381818,4.15891996 C5.13381818,3.01330762 8.21127273,1.38167792 13.2103636,1.38167792 Z M17.0551638,18.1356756 C15.3034491,18.7160085 12.6646685,19.3365477 9.36,19.3365477 C4.80054545,19.3365477 0,17.8715526 0,15.1706847 L0,11.1853423 C0,9.80366442 1.36145455,8.60250723 3.71563636,7.82487946 L3.71563636,4.18669238 C3.71563636,1.4927676 8.60836364,0.0208293153 13.2103636,0.0208293153 C17.8123636,0.0208293153 22.7050909,1.46499518 22.7050909,4.18669238 L22.7050909,7.55038791 C21.6935929,6.80464972 20.4417145,6.36363636 19.0863636,6.36363636 C15.7249578,6.36363636 13,9.07626406 13,12.4224599 C13,15.0596124 14.6924957,17.30325 17.0551638,18.1356756 Z" id="Combined-Shape"></path>
                <path d="M19.0863636,17.1176471 C21.6732715,17.1176471 23.7798701,15.0205806 23.7798701,12.4224599 C23.7798701,9.82433923 21.6732715,7.72727273 19.0863636,7.72727273 C16.4994558,7.72727273 14.3928571,9.82433923 14.3928571,12.4224599 C14.3928571,15.0205806 16.4994558,17.1176471 19.0863636,17.1176471 Z M19.0863636,18.4812834 C15.7249578,18.4812834 13,15.7686557 13,12.4224599 C13,9.07626406 15.7249578,6.36363636 19.0863636,6.36363636 C22.4477695,6.36363636 25.1727273,9.07626406 25.1727273,12.4224599 C25.1727273,15.7686557 22.4477695,18.4812834 19.0863636,18.4812834 Z" id="Combined-Shape" fill-rule="nonzero"></path>
                <path d="M18.4948961,11.9075151 L18.4948961,9.83168553 C18.4948961,9.46411448 18.7928713,9.16613928 19.1604424,9.16613928 C19.5280134,9.16613928 19.8259886,9.46411448 19.8259886,9.83168553 L19.8259886,11.9075151 L21.620168,11.9075151 C21.9877391,11.9075151 22.2857143,12.2054903 22.2857143,12.5730613 C22.2857143,12.9406324 21.9877391,13.2386076 21.620168,13.2386076 L19.8259886,13.2386076 L19.8259886,15.2617537 C19.8259886,15.6293248 19.5280134,15.9273 19.1604424,15.9273 C18.7928713,15.9273 18.4948961,15.6293248 18.4948961,15.2617537 L18.4948961,13.2386076 L16.6241208,13.2386076 C16.2565498,13.2386076 15.9585746,12.9406324 15.9585746,12.5730613 C15.9585746,12.2054903 16.2565498,11.9075151 16.6241208,11.9075151 L18.4948961,11.9075151 Z" id="Combined-Shape"></path>
            </g>
        </g>
    </g>
</svg>