<?xml version="1.0" encoding="UTF-8"?>
<svg width="14px" height="13px" viewBox="0 0 14 13" version="1.1" xmlns="http://www.w3.org/2000/svg" xmlns:xlink="http://www.w3.org/1999/xlink">
    <!-- Generator: Sketch 49.1 (51147) - http://www.bohemiancoding.com/sketch -->
    <title>ic_promot_w</title>
    <desc>Created with Sketch.</desc>
    <defs></defs>
    <g id="Elements" stroke="none" stroke-width="1" fill="none" fill-rule="evenodd">
        <g id="Artboard-2" transform="translate(-179.000000, -161.000000)" fill="#FFFFFF" fill-rule="nonzero">
            <g id="ic_promot_w" transform="translate(179.000000, 161.000000)">
                <path d="M1.71190135,12.3982878 C1.40556626,12.6943516 0.913122722,12.6901988 0.611997923,12.3890122 C0.310873124,12.0878256 0.315096898,11.6036585 0.621431986,11.3075946 L5.62628661,6.47054939 C6.38982653,5.73261045 7.61645858,5.74039473 8.37024634,6.48796272 L13.2370009,11.3145599 C13.5394234,11.614487 13.5372901,12.0986675 13.232236,12.3960072 C12.927182,12.693347 12.434725,12.6912495 12.1323025,12.3913224 L7.26554792,7.56472522 C7.11479037,7.41521162 6.86946396,7.41365476 6.71675597,7.56124255 L1.71190135,12.3982878 Z" id="Line"></path>
                <path d="M1.71190135,7.04534658 C1.40556626,7.34141046 0.913122722,7.33725767 0.611997923,7.03607107 C0.310873124,6.73488447 0.315096898,6.2507173 0.621431986,5.95465342 L5.62628661,1.11760822 C6.38982653,0.379669278 7.61645858,0.387453554 8.37024634,1.13502154 L13.2370009,5.96161875 C13.5394234,6.26154584 13.5372901,6.74572628 13.232236,7.04306603 C12.927182,7.34040579 12.434725,7.33830834 12.1323025,7.03838125 L7.26554792,2.21178404 C7.11479037,2.06227044 6.86946396,2.06071359 6.71675597,2.20830138 L1.71190135,7.04534658 Z" id="Line"></path>
            </g>
        </g>
    </g>
</svg>