<?xml version="1.0" encoding="UTF-8"?>
<svg width="18px" height="17px" viewBox="0 0 18 17" version="1.1" xmlns="http://www.w3.org/2000/svg" xmlns:xlink="http://www.w3.org/1999/xlink">
    <!-- Generator: Sketch 49.1 (51147) - http://www.bohemiancoding.com/sketch -->
    <title>ic_promot_pressed</title>
    <desc>Created with Sketch.</desc>
    <defs></defs>
    <g id="Elements" stroke="none" stroke-width="1" fill="none" fill-rule="evenodd">
        <g id="Artboard-2" transform="translate(-48.000000, -159.000000)" fill="#4A51B6" fill-rule="nonzero">
            <g id="ic_promot_pressed" transform="translate(48.000000, 159.000000)">
                <path d="M2.20101602,16.2131455 C1.80715662,16.600306 1.17401493,16.5948754 0.786854473,16.201016 C0.399694017,15.8071566 0.405124583,15.1740149 0.798983982,14.7868545 L7.23379707,8.46148767 C8.21549125,7.49649059 9.79258961,7.50667003 10.7617453,8.48425894 L17.0190012,14.795963 C17.4078301,15.1881753 17.4050873,15.8213344 17.0128749,16.2101633 C16.6206626,16.5989922 15.9875035,16.5962494 15.5986746,16.204037 L9.34141875,9.89233298 C9.14758761,9.69681519 8.83216794,9.69477931 8.63582911,9.88777872 L2.20101602,16.2131455 Z" id="Line"></path>
                <path d="M2.20101602,9.21314553 C1.80715662,9.60030598 1.17401493,9.59487542 0.786854473,9.20101602 C0.399694017,8.80715662 0.405124583,8.17401493 0.798983982,7.78685447 L7.23379707,1.46148767 C8.21549125,0.496490594 9.79258961,0.506670032 10.7617453,1.48425894 L17.0190012,7.79596298 C17.4078301,8.18817533 17.4050873,8.82133436 17.0128749,9.21016327 C16.6206626,9.59899218 15.9875035,9.59624937 15.5986746,9.20403702 L9.34141875,2.89233298 C9.14758761,2.69681519 8.83216794,2.69477931 8.63582911,2.88777872 L2.20101602,9.21314553 Z" id="Line"></path>
            </g>
        </g>
    </g>
</svg>