<svg xmlns="http://www.w3.org/2000/svg" width="18" height="20" viewBox="0 0 18 20">
    <path fill="#0078C4" fill-rule="evenodd" d="M6.12 16.526H.771a.78.78 0 0 1-.771-.79.78.78 0 0 1 .771-.789h.669V7.632C1.44 3.423 4.785 0 8.897 0s7.457 3.423 7.457 7.632v7.315h.875a.78.78 0 0 1 .771.79.78.78 0 0 1-.771.79h-5.452v.578c0 1.596-1.269 2.895-2.828 2.895-1.56 0-2.829-1.299-2.829-2.895v-.579zm1.543 0v.58c0 .725.577 1.315 1.286 1.315.709 0 1.285-.59 1.285-1.316v-.579H7.663zm7.148-1.579V7.632c0-3.338-2.653-6.053-5.914-6.053-3.261 0-5.914 2.715-5.914 6.053v7.315H14.81z"/>
</svg>
