<svg xmlns="http://www.w3.org/2000/svg" width="20" height="22" viewBox="0 0 20 22">
    <path fill="#B7B7B9" fill-rule="evenodd" d="M4.987 17.168A7.875 7.875 0 0 1 2 10.996c0-3.691 2.552-6.78 6.002-7.663v-2.04C3.435 2.208 0 6.204 0 10.995c0 2.959 1.314 5.613 3.391 7.426 1.609 1.485 2.61-.495 1.596-1.254zM16.524 3.495c-1.023-.916-2.525.57-1.54 1.305A7.876 7.876 0 0 1 18 10.996c0 3.69-2.552 6.781-6.002 7.661V20.7C16.565 19.78 20 15.785 20 10.996c0-3-1.348-5.685-3.476-7.501zm-7.64 1.55l3.255-1.932c.473-.28.473-.738.002-1.02L8.855.125c-.471-.283-.852-.07-.85.476l.018 3.963c0 .546.388.76.861.48zm2.261 11.913l-3.286 1.968c-.471.282-.471.74.002 1.022l3.255 1.929c.473.28.861.066.864-.48l.017-3.963c0-.546-.38-.76-.852-.476z"/>
</svg>
