<svg xmlns="http://www.w3.org/2000/svg" width="20" height="17" viewBox="0 0 20 17">
    <path fill="#0078C4" fill-rule="evenodd" d="M16.1 17a.818.818 0 0 1-.444-.13l-5.029-3.241-2.697 1.844a.828.828 0 0 1-.73.098.768.768 0 0 1-.498-.516l-1.354-4.878L.508 8.42A.755.755 0 0 1 0 7.721a.754.754 0 0 1 .499-.704L18.899.06a.816.816 0 0 1 .356-.058.808.808 0 0 1 .55.255.73.73 0 0 1 .18.646L16.877 16.39a.761.761 0 0 1-.474.554.822.822 0 0 1-.304.057zm-5.031-4.905l4.48 2.888 2.416-12.05-8.728 7.981 1.81 1.168.022.013zm-3.729-.642l.6 2.16 1.292-.884-1.692-1.09a.755.755 0 0 1-.2-.186zM2.97 7.702l3.323 1.207a.77.77 0 0 1 .483.511l.42 1.518a.74.74 0 0 1 .24-.464l8.316-7.605L2.97 7.702z"/>
</svg>
