<svg xmlns="http://www.w3.org/2000/svg" width="22" height="22" viewBox="0 0 22 22">
    <g fill="none" fill-rule="evenodd">
        <path fill="#0078C4" fill-rule="nonzero" d="M15.779 11.725a4918.275 4918.275 0 0 0 .004-2.462c-1.581.684-4.063 1.051-6.866 1.051s-5.283-.366-6.865-1.05a4201.595 4201.595 0 0 0 .006 2.468c.233.498 3.234 1.297 6.859 1.297 3.641 0 6.653-.806 6.862-1.304zm-.005 1.885c-1.581.682-4.059 1.047-6.857 1.047-2.796 0-5.272-.365-6.854-1.045a1141.506 1141.506 0 0 0 .01 2.029l.004.414c.424.601 3.374 1.316 6.84 1.316 3.627 0 6.686-.785 6.878-1.388-.037.116-.028-.296-.032.06l.003-.422a530.668 530.668 0 0 0 .008-2.011zM.264 11.67a3948.202 3948.202 0 0 1-.008-4.213 1.389 1.389 0 0 1-.006-.13h.006L.25 2.987C.25 1.079 4.11 0 8.917 0s8.666 1.079 8.666 2.986l-.004 4.343h.004c0 .038-.001.077-.004.115a7758.468 7758.468 0 0 1-.007 4.227h.011c0 .062-.004.122-.011.181a2166.05 2166.05 0 0 1-.012 3.778l-.004.43c-.007.557 0 .252-.039.376-.519 1.627-4.166 2.564-8.6 2.564-4.39 0-8.012-.921-8.584-2.514-.048-.136-.04.15-.048-.4l-.005-.434c-.003-.353-.005-.86-.008-1.505l-.007-2.272a1.38 1.38 0 0 1-.015-.204h.014zm15.522-4.309l.002-2.444c-1.58.686-4.064 1.053-6.871 1.053-2.807 0-5.29-.367-6.872-1.053l.004 2.448c.15.497 3.188 1.32 6.868 1.32 3.69 0 6.734-.828 6.869-1.324zm-6.87-3.02c3.776 0 6.874-.865 6.874-1.356 0-.492-3.098-1.357-6.873-1.357-3.776 0-6.874.865-6.874 1.357 0 .491 3.098 1.357 6.874 1.357z"/>
        <g transform="translate(10 11)">
            <path fill="#0078C4" fill-rule="nonzero" d="M5.958 10.65C2.877 10.65.38 8.344.38 5.5.38 2.656 2.877.35 5.96.35c3.08 0 5.579 2.306 5.579 5.15 0 2.844-2.498 5.15-5.58 5.15zm0-1.3c-2.303 0-4.17-1.724-4.17-3.85 0-2.126 1.867-3.85 4.17-3.85 2.304 0 4.171 1.724 4.171 3.85 0 2.126-1.867 3.85-4.17 3.85z"/>
            <path fill="#FFF" d="M5.958 9.35c2.304 0 4.171-1.724 4.171-3.85 0-2.126-1.867-3.85-4.17-3.85-2.304 0-4.171 1.724-4.171 3.85 0 2.126 1.867 3.85 4.17 3.85z"/>
            <rect width="5.417" height="1.2" x="3.25" y="5" fill="#0078C4" rx=".6"/>
            <rect width="5.417" height="1.2" x="3.25" y="5" fill="#0078C4" rx=".6" transform="rotate(90 5.958 5.6)"/>
        </g>
    </g>
</svg>
